<?xml version="1.0" encoding="UTF-8"?>
<svg width="17px" height="17px" viewBox="0 0 17 17" version="1.1" xmlns="http://www.w3.org/2000/svg" xmlns:xlink="http://www.w3.org/1999/xlink">
    <!-- Generator: Sketch 63 (92445) - https://sketch.com -->
    <title>形状 2</title>
    <desc>Created with Sketch.</desc>
    <g id="页面" stroke="none" stroke-width="1" fill="none" fill-rule="evenodd">
        <g id="首页" transform="translate(-213.000000, -114.000000)" fill="#D5D5D5" fill-rule="nonzero">
            <g id="形状-2" transform="translate(212.155556, 113.058333)">
                <path d="M2.91418182,7.90909091 C3.36618182,5.36945455 5.36945455,3.36618182 7.90909091,2.91418182 L7.90909091,1.72727273 C7.90909091,1.32561109 8.234702,1 8.63636364,1 L9.36363636,1 C9.765298,1 10.0909091,1.32561109 10.0909091,1.72727273 L10.0909091,2.91418182 C12.6305455,3.36618182 14.6338182,5.36945455 15.0858182,7.90909091 L16.2727273,7.90909091 C16.6743889,7.90909091 17,8.234702 17,8.63636364 L17,9.36363636 C17,9.765298 16.6743889,10.0909091 16.2727273,10.0909091 L15.0858182,10.0909091 C14.6338182,12.6305455 12.6305455,14.6338182 10.0909091,15.0858182 L10.0909091,16.2727273 C10.0909091,16.6743889 9.765298,17 9.36363636,17 L8.63636364,17 C8.234702,17 7.90909091,16.6743889 7.90909091,16.2727273 L7.90909091,15.0858182 C5.36945455,14.6338182 3.36618182,12.6305455 2.91418182,10.0909091 L1.72727273,10.0909091 C1.32561109,10.0909091 1,9.765298 1,9.36363636 L1,8.63636364 C1,8.234702 1.32561109,7.90909091 1.72727273,7.90909091 L2.91418182,7.90909091 Z M4.39927273,7.90909091 L5.72727273,7.90909091 C6.12893436,7.90909091 6.45454545,8.234702 6.45454545,8.63636364 L6.45454545,9.36363636 C6.45454545,9.765298 6.12893436,10.0909091 5.72727273,10.0909091 L4.39927273,10.0909091 C4.81301826,11.8295075 6.17049249,13.1869817 7.90909091,13.6007273 L7.90909091,12.2727273 C7.90909091,11.8710656 8.234702,11.5454545 8.63636364,11.5454545 L9.36363636,11.5454545 C9.765298,11.5454545 10.0909091,11.8710656 10.0909091,12.2727273 L10.0909091,13.6007273 C11.8295075,13.1869817 13.1869817,11.8295075 13.6007273,10.0909091 L12.2727273,10.0909091 C11.8710656,10.0909091 11.5454545,9.765298 11.5454545,9.36363636 L11.5454545,8.63636364 C11.5454545,8.234702 11.8710656,7.90909091 12.2727273,7.90909091 L13.6007273,7.90909091 C13.1869817,6.17049249 11.8295075,4.81301826 10.0909091,4.39927273 L10.0909091,5.72727273 C10.0909091,6.12893436 9.765298,6.45454545 9.36363636,6.45454545 L8.63636364,6.45454545 C8.234702,6.45454545 7.90909091,6.12893436 7.90909091,5.72727273 L7.90909091,4.39927273 C6.17049249,4.81301826 4.81301826,6.17049249 4.39927273,7.90909091 Z" id="形状"></path>
            </g>
        </g>
    </g>
</svg>