<?xml version="1.0" encoding="UTF-8"?>
<svg width="18px" height="15px" viewBox="0 0 18 15" version="1.1" xmlns="http://www.w3.org/2000/svg" xmlns:xlink="http://www.w3.org/1999/xlink">
    <!-- Generator: Sketch 63 (92445) - https://sketch.com -->
    <title>编组</title>
    <desc>Created with Sketch.</desc>
    <defs>
        <filter x="-6.9%" y="-8.9%" width="113.9%" height="117.9%" filterUnits="objectBoundingBox" id="filter-1">
            <feOffset dx="0" dy="0.5" in="SourceAlpha" result="shadowOffsetOuter1"></feOffset>
            <feColorMatrix values="0 0 0 0 0   0 0 0 0 0   0 0 0 0 0  0 0 0 0.3 0" type="matrix" in="shadowOffsetOuter1" result="shadowMatrixOuter1"></feColorMatrix>
            <feMerge>
                <feMergeNode in="shadowMatrixOuter1"></feMergeNode>
                <feMergeNode in="SourceGraphic"></feMergeNode>
            </feMerge>
        </filter>
        <path d="M1.01332589,3.07195012 L1.01332589,1.16666667 C1.01332589,0.52234 1.5622681,0 2.23942332,0 L7.14381305,0 C7.82096827,0 8.36991048,0.52234 8.36991048,1.16666667 L15.7264951,1.16666667 C16.4036442,1.16666667 16.8825823,1.61232008 16.8825823,2.25664675 C16.8825823,2.62082338 16.8825823,2.89259117 16.8825823,3.07195012 L1.01332589,3.07195012 Z M15.8263533,4.19940088 C16.4802992,4.19940088 16.9307154,4.6267417 16.943771,5.30281024 L17.0505626,12.8980483 C17.0144662,13.5162844 16.4770923,14 15.8263533,14 L2.13956017,14 C1.48882944,14 0.951447118,13.5162844 0.915351055,12.8980483 L0.915351055,5.30281024 C0.877789265,4.65947057 1.25456011,4.23514171 1.93067242,4.19940088 L15.8263533,4.19940088 Z" id="path-2"></path>
    </defs>
    <g id="控件" stroke="none" stroke-width="1" fill="none" fill-rule="evenodd">
        <g id="Icons-/-Folder---Unexpand-/-Dark">
            <g id="编组" filter="url(#filter-1)">
                <mask id="mask-3" fill="white">
                    <use xlink:href="#path-2"></use>
                </mask>
                <g id="蒙版"></g>
                <polygon id="Fill-1" fill="#7F7F7F" mask="url(#mask-3)" points="-3 4 22 4 22 -6 -3 -6"></polygon>
                <polygon id="底部" fill="#A1A1A2" mask="url(#mask-3)" points="-3 15 21.88583 15 21.88583 4 -3 4"></polygon>
            </g>
        </g>
    </g>
</svg>